<svg enable-background="new 0 0 151.634 242.782" height="242.782" viewBox="0 0 151.634 242.782" width="151.634" xmlns="http://www.w3.org/2000/svg"><path d="m16.316 206.774c.547 11.968-.601 15.789-3.487 29.822 3.956-5.259 9.84-7.501 9.84-7.501s2.457 6.73 2.691 12.188c6.355-12.399 6.734-22.009 6.361-34.509" fill="#ffce46"/><path d="m25.36 242.783c-.106 0-.214-.011-.321-.034-.665-.146-1.148-.722-1.178-1.401-.156-3.63-1.37-7.936-2.083-10.188-1.884.968-5.255 3.021-7.75 6.338-.421.562-1.174.755-1.816.466-.639-.288-.994-.982-.852-1.669.299-1.453.579-2.797.841-4.052 2.255-10.812 3.099-14.858 2.617-25.399-.038-.827.603-1.529 1.43-1.566.824-.034 1.529.602 1.567 1.43.482 10.561-.372 15.077-2.46 25.108 3.356-2.792 6.595-4.051 6.781-4.121.376-.145.792-.131 1.157.037.365.167.648.473.786.85.072.198 1.276 3.523 2.082 7.426 4.236-10.192 4.375-18.719 4.062-29.187-.024-.828.626-1.52 1.455-1.544.844-.043 1.52.627 1.544 1.454.359 12.05.107 22.296-6.526 35.238-.262.507-.782.814-1.336.814z" fill="#22183b"/><path d="m1.5 1.5h148.634v205.274h-148.634z" fill="#7c5ef1"/><path d="m150.134 208.274h-148.634c-.829 0-1.5-.672-1.5-1.5v-205.274c0-.829.671-1.5 1.5-1.5h148.634c.828 0 1.5.671 1.5 1.5v205.274c0 .829-.672 1.5-1.5 1.5zm-147.134-3h145.634v-202.274h-145.634z" fill="#22183b"/><path d="m119.891 54.275h-88.148c-3.34 0-6.048-2.708-6.048-6.048v-18.61c0-3.34 2.708-6.048 6.048-6.048h88.149c3.34 0 6.048 2.708 6.048 6.048v18.611c-.001 3.34-2.709 6.047-6.049 6.047z" fill="#f5eaf9"/></svg>